<?xml version="1.0" encoding="utf-8"?>
<!-- Generator: Adobe Illustrator 28.0.0, SVG Export Plug-In . SVG Version: 6.00 Build 0)  -->
<svg version="1.1" id="Layer_1" xmlns="http://www.w3.org/2000/svg" xmlns:xlink="http://www.w3.org/1999/xlink" x="0px" y="0px"
	 viewBox="0 0 308 108" style="enable-background:new 0 0 308 108;" xml:space="preserve">
<style type="text/css">
	.st0{filter:url(#Custom_Shadow_1);}
	.st1{fill:#FFFFFF;}
	.st2{stroke:#FFFFFF;stroke-width:5;stroke-linecap:round;stroke-miterlimit:10;}
</style>
<filter  filterUnits="objectBoundingBox" height="130%" id="Custom_Shadow_1" width="150%" x="-15%" y="-15%">
	<feGaussianBlur  in="SourceAlpha" result="blur" stdDeviation="3"></feGaussianBlur>
	<feOffset  dx="3" dy="3" in="blur" result="offsetBlurredAlpha"></feOffset>
	<feMerge>
		<feMergeNode  in="offsetBlurredAlpha"></feMergeNode>
		<feMergeNode  in="SourceGraphic"></feMergeNode>
	</feMerge>
</filter>
<g class="st0">
	<path class="st1" d="M83.53,7.65h-4.79v13.72h-3.8V7.65h-4.77V4.56h13.36V7.65z"/>
	<path class="st1" d="M96.94,21.37h-3.69v-6.82c0-1.76-0.64-2.64-1.92-2.64c-0.66,0-1.19,0.25-1.59,0.74s-0.61,1.12-0.61,1.88v6.84
		h-3.7V3.6h3.7v7.55h0.05c0.91-1.38,2.14-2.07,3.69-2.07c2.72,0,4.08,1.64,4.08,4.92V21.37z"/>
	<path class="st1" d="M110.65,16.42h-7.83c0.12,1.74,1.22,2.61,3.29,2.61c1.32,0,2.48-0.31,3.48-0.94v2.67
		c-1.11,0.59-2.55,0.89-4.32,0.89c-1.94,0-3.44-0.54-4.51-1.61s-1.61-2.57-1.61-4.49c0-1.99,0.58-3.57,1.73-4.73
		s2.58-1.75,4.27-1.75c1.75,0,3.1,0.52,4.06,1.56s1.44,2.45,1.44,4.23V16.42z M107.22,14.15c0-1.72-0.7-2.58-2.09-2.58
		c-0.59,0-1.11,0.25-1.54,0.74s-0.7,1.11-0.79,1.84H107.22z"/>
	<path class="st1" d="M100.75,41.76c0,7.36-3.43,11.04-10.29,11.04c-6.65,0-9.98-3.59-9.98-10.78V27.86h5.54v14.22
		c0,3.96,1.55,5.95,4.65,5.95c3.04,0,4.56-1.91,4.56-5.74V27.86h5.52V41.76z"/>
	<path class="st1" d="M122.45,52.37h-5.38v-9.72c0-2.71-0.97-4.07-2.91-4.07c-0.93,0-1.7,0.36-2.31,1.08
		c-0.6,0.72-0.91,1.63-0.91,2.73v9.98h-5.4v-17.5h5.4v2.77h0.07c1.29-2.13,3.16-3.2,5.62-3.2c3.87,0,5.81,2.4,5.81,7.21V52.37z"/>
	<path class="st1" d="M143.85,52.37h-5.4v-2.41h-0.07c-1.23,1.89-3.04,2.84-5.42,2.84c-2.19,0-3.95-0.77-5.28-2.32
		c-1.33-1.54-2-3.7-2-6.47c0-2.89,0.73-5.21,2.2-6.96s3.4-2.62,5.78-2.62c2.26,0,3.83,0.81,4.72,2.43h0.07V26.46h5.4V52.37z
		 M138.55,43.86v-1.32c0-1.14-0.33-2.09-0.99-2.84c-0.66-0.75-1.52-1.13-2.58-1.13c-1.2,0-2.13,0.47-2.8,1.41
		c-0.67,0.94-1.01,2.23-1.01,3.87c0,1.54,0.32,2.72,0.97,3.55c0.65,0.83,1.55,1.25,2.7,1.25c1.09,0,1.98-0.44,2.67-1.32
		C138.21,46.47,138.55,45.31,138.55,43.86z"/>
	<path class="st1" d="M164.12,45.16H152.7c0.18,2.54,1.78,3.81,4.8,3.81c1.92,0,3.62-0.46,5.08-1.37v3.9
		c-1.62,0.87-3.72,1.3-6.31,1.3c-2.83,0-5.02-0.78-6.58-2.35c-1.56-1.57-2.34-3.75-2.34-6.55c0-2.91,0.84-5.21,2.53-6.9
		c1.69-1.7,3.76-2.55,6.22-2.55c2.55,0,4.53,0.76,5.92,2.27c1.4,1.52,2.09,3.57,2.09,6.17V45.16z M159.11,41.84
		c0-2.51-1.01-3.76-3.04-3.76c-0.87,0-1.62,0.36-2.25,1.08c-0.63,0.72-1.02,1.61-1.15,2.68H159.11z"/>
	<path class="st1" d="M178.75,39.74c-0.65-0.35-1.41-0.53-2.27-0.53c-1.17,0-2.09,0.43-2.75,1.29c-0.66,0.86-0.99,2.03-0.99,3.51
		v8.36h-5.4v-17.5h5.4v3.25h0.07c0.85-2.37,2.39-3.55,4.61-3.55c0.57,0,1.01,0.07,1.33,0.21V39.74z"/>
	<path class="st1" d="M198.42,50.37c0,3.25-0.94,5.76-2.82,7.55c-1.88,1.78-4.6,2.67-8.17,2.67c-2.36,0-4.23-0.34-5.61-1.01v-4.55
		c1.8,1.05,3.62,1.57,5.45,1.57c1.82,0,3.24-0.48,4.24-1.44c1-0.96,1.5-2.27,1.5-3.92v-1.38h-0.07c-1.23,1.96-3.05,2.94-5.45,2.94
		c-2.23,0-4-0.79-5.31-2.36c-1.31-1.57-1.97-3.68-1.97-6.32c0-2.96,0.73-5.32,2.19-7.06s3.38-2.62,5.76-2.62
		c2.13,0,3.73,0.82,4.79,2.46h0.07v-2.03h5.4V50.37z M193.09,43.96v-1.38c0-1.1-0.33-2.05-0.98-2.83c-0.66-0.78-1.51-1.17-2.55-1.17
		c-1.2,0-2.14,0.47-2.82,1.4c-0.68,0.93-1.03,2.25-1.03,3.95c0,1.46,0.33,2.61,0.97,3.46s1.54,1.27,2.67,1.27
		c1.12,0,2.02-0.43,2.71-1.29C192.74,46.51,193.09,45.37,193.09,43.96z"/>
	<path class="st1" d="M214.35,39.74c-0.65-0.35-1.41-0.53-2.27-0.53c-1.17,0-2.09,0.43-2.75,1.29c-0.66,0.86-0.99,2.03-0.99,3.51
		v8.36h-5.4v-17.5h5.4v3.25h0.07c0.86-2.37,2.39-3.55,4.62-3.55c0.57,0,1.01,0.07,1.33,0.21V39.74z"/>
	<path class="st1" d="M225.2,52.8c-2.92,0-5.21-0.82-6.88-2.45c-1.67-1.63-2.5-3.85-2.5-6.66c0-2.89,0.87-5.16,2.6-6.79
		c1.73-1.63,4.07-2.45,7.02-2.45c2.91,0,5.18,0.82,6.84,2.45s2.48,3.8,2.48,6.49c0,2.91-0.85,5.2-2.55,6.89
		C230.49,51.95,228.16,52.8,225.2,52.8z M225.33,38.58c-1.28,0-2.27,0.44-2.97,1.32c-0.71,0.88-1.06,2.12-1.06,3.73
		c0,3.36,1.36,5.04,4.07,5.04c2.59,0,3.88-1.73,3.88-5.18C229.25,40.21,227.94,38.58,225.33,38.58z"/>
	<path class="st1" d="M254.88,52.37h-5.38V49.7h-0.09c-1.33,2.06-3.12,3.09-5.35,3.09c-4.06,0-6.08-2.46-6.08-7.37V34.87h5.38v10.08
		c0,2.47,0.98,3.71,2.94,3.71c0.97,0,1.74-0.34,2.32-1.02c0.58-0.68,0.87-1.6,0.87-2.76V34.87h5.38V52.37z"/>
	<path class="st1" d="M276.33,52.37h-5.38v-9.72c0-2.71-0.97-4.07-2.9-4.07c-0.94,0-1.7,0.36-2.31,1.08
		c-0.6,0.72-0.91,1.63-0.91,2.73v9.98h-5.4v-17.5h5.4v2.77h0.07c1.29-2.13,3.16-3.2,5.62-3.2c3.87,0,5.81,2.4,5.81,7.21V52.37z"/>
	<path class="st1" d="M297.73,52.37h-5.4v-2.41h-0.07c-1.23,1.89-3.04,2.84-5.42,2.84c-2.19,0-3.95-0.77-5.28-2.32
		c-1.33-1.54-2-3.7-2-6.47c0-2.89,0.74-5.21,2.21-6.96s3.39-2.62,5.78-2.62c2.26,0,3.83,0.81,4.72,2.43h0.07V26.46h5.4V52.37z
		 M292.43,43.86v-1.32c0-1.14-0.33-2.09-0.99-2.84s-1.52-1.13-2.58-1.13c-1.2,0-2.13,0.47-2.8,1.41c-0.67,0.94-1.01,2.23-1.01,3.87
		c0,1.54,0.32,2.72,0.97,3.55c0.65,0.83,1.55,1.25,2.7,1.25c1.09,0,1.99-0.44,2.68-1.32C292.08,46.47,292.43,45.31,292.43,43.86z"/>
	<path class="st1" d="M92.03,88.37V63.86h8.68c8.7,0,13.06,3.98,13.06,11.95c0,3.82-1.19,6.86-3.56,9.14
		c-2.38,2.28-5.54,3.42-9.49,3.42H92.03z M97.55,68.36v15.53h2.73c2.39,0,4.27-0.72,5.63-2.15c1.36-1.44,2.04-3.39,2.04-5.86
		c0-2.34-0.67-4.17-2.03-5.51c-1.35-1.34-3.24-2.01-5.68-2.01H97.55z"/>
	<path class="st1" d="M120.04,68.1c-0.91,0-1.66-0.27-2.24-0.81s-0.87-1.21-0.87-1.99c0-0.81,0.29-1.47,0.87-1.98
		s1.33-0.77,2.24-0.77c0.92,0,1.67,0.26,2.25,0.77c0.57,0.51,0.86,1.17,0.86,1.98c0,0.82-0.29,1.49-0.86,2.02
		C121.72,67.84,120.97,68.1,120.04,68.1z M122.71,88.37h-5.4v-17.5h5.4V88.37z"/>
	<path class="st1" d="M126.11,87.91v-4.38c0.89,0.54,1.77,0.93,2.66,1.2c0.88,0.26,1.72,0.39,2.5,0.39c0.96,0,1.71-0.13,2.26-0.39
		c0.55-0.26,0.83-0.66,0.83-1.2c0-0.34-0.13-0.63-0.38-0.86c-0.25-0.23-0.57-0.43-0.97-0.6c-0.39-0.17-0.82-0.32-1.29-0.46
		c-0.47-0.14-0.92-0.29-1.35-0.46c-0.7-0.26-1.31-0.54-1.84-0.85c-0.53-0.3-0.97-0.65-1.33-1.05c-0.36-0.4-0.63-0.86-0.82-1.38
		c-0.19-0.52-0.28-1.15-0.28-1.86c0-0.98,0.21-1.82,0.64-2.53c0.43-0.71,1-1.29,1.71-1.74c0.71-0.45,1.53-0.78,2.44-0.99
		c0.92-0.21,1.87-0.32,2.86-0.32c0.77,0,1.56,0.06,2.36,0.18c0.8,0.12,1.58,0.29,2.36,0.52v4.17c-0.68-0.4-1.42-0.7-2.2-0.9
		c-0.78-0.2-1.55-0.3-2.3-0.3c-0.35,0-0.69,0.03-1,0.09c-0.31,0.06-0.59,0.15-0.83,0.27c-0.24,0.12-0.43,0.27-0.56,0.46
		c-0.14,0.19-0.21,0.4-0.21,0.64c0,0.32,0.1,0.59,0.31,0.82c0.21,0.23,0.47,0.42,0.8,0.59c0.33,0.17,0.7,0.31,1.1,0.44
		c0.4,0.13,0.81,0.26,1.2,0.4c0.72,0.25,1.37,0.52,1.95,0.82c0.58,0.3,1.08,0.64,1.5,1.04c0.42,0.4,0.73,0.87,0.96,1.4
		c0.22,0.54,0.33,1.17,0.33,1.91c0,1.04-0.23,1.92-0.67,2.66c-0.45,0.73-1.05,1.33-1.79,1.79c-0.75,0.46-1.61,0.8-2.58,1.01
		c-0.97,0.21-1.99,0.32-3.03,0.32C129.53,88.8,127.75,88.5,126.11,87.91z"/>
	<path class="st1" d="M148.12,86.34h-0.07v10.08h-5.4V70.87h5.4v2.63h0.07c1.33-2.04,3.21-3.06,5.62-3.06
		c2.27,0,4.02,0.78,5.25,2.33c1.24,1.56,1.86,3.67,1.86,6.35c0,2.92-0.72,5.26-2.16,7.02c-1.44,1.77-3.36,2.65-5.75,2.65
		C150.83,88.8,149.23,87.98,148.12,86.34z M147.97,79.16v1.4c0,1.21,0.32,2.19,0.96,2.96c0.64,0.76,1.48,1.14,2.51,1.14
		c1.23,0,2.18-0.47,2.86-1.43c0.68-0.95,1.02-2.3,1.02-4.04c0-3.08-1.2-4.61-3.59-4.61c-1.1,0-2.01,0.42-2.71,1.26
		C148.32,76.67,147.97,77.78,147.97,79.16z"/>
	<path class="st1" d="M178.92,88.37h-5.11v-2.51h-0.07c-1.17,1.96-2.91,2.94-5.21,2.94c-1.7,0-3.03-0.48-4.01-1.44
		c-0.97-0.96-1.46-2.25-1.46-3.85c0-3.39,2.01-5.35,6.03-5.88l4.75-0.63c0-1.91-1.04-2.87-3.11-2.87c-2.08,0-4.07,0.62-5.95,1.86
		v-4.07c0.75-0.39,1.78-0.73,3.09-1.03c1.3-0.3,2.49-0.45,3.56-0.45c4.99,0,7.49,2.49,7.49,7.47V88.37z M173.84,81.26v-1.18
		l-3.18,0.41c-1.75,0.23-2.63,1.02-2.63,2.38c0,0.62,0.21,1.12,0.64,1.51c0.43,0.39,1,0.59,1.73,0.59c1.01,0,1.84-0.35,2.48-1.05
		C173.52,83.22,173.84,82.33,173.84,81.26z"/>
	<path class="st1" d="M193.77,88.16c-0.8,0.42-2,0.63-3.61,0.63c-3.81,0-5.71-1.98-5.71-5.93v-8.01h-2.84v-3.98h2.84v-3.78
		l5.38-1.54v5.31h3.93v3.98h-3.93v7.07c0,1.82,0.72,2.73,2.17,2.73c0.57,0,1.16-0.16,1.76-0.5V88.16z"/>
	<path class="st1" d="M210.07,87.74c-1.22,0.71-2.98,1.06-5.28,1.06c-2.69,0-4.87-0.81-6.53-2.44c-1.66-1.63-2.5-3.73-2.5-6.31
		c0-2.97,0.89-5.32,2.67-7.03c1.78-1.71,4.17-2.57,7.15-2.57c2.06,0,3.55,0.27,4.48,0.82v4.58c-1.13-0.84-2.39-1.26-3.78-1.26
		c-1.55,0-2.78,0.45-3.68,1.36c-0.91,0.91-1.36,2.16-1.36,3.75c0,1.55,0.43,2.77,1.3,3.65c0.87,0.88,2.06,1.32,3.57,1.32
		c1.34,0,2.66-0.42,3.95-1.26V87.74z"/>
	<path class="st1" d="M230.41,88.37h-5.38v-9.95c0-2.56-0.93-3.84-2.8-3.84c-0.96,0-1.73,0.36-2.32,1.08
		c-0.59,0.72-0.89,1.63-0.89,2.73v9.98h-5.4V62.46h5.4v11.01h0.07c1.32-2.02,3.12-3.03,5.38-3.03c3.96,0,5.95,2.39,5.95,7.18V88.37z
		"/>
</g>
<g class="st0">
	<path class="st2" d="M4.77,11.59C10.53,40.98,16.74,68.1,22.5,97.5"/>
	<path class="st2" d="M10.55,28.51c17.21-3.37,33.1-7.01,50.31-10.38"/>
	<path class="st2" d="M15.19,54.37C32.4,51,48.29,47.36,65.5,43.99"/>
	<path class="st2" d="M21.51,80.3c17.21-3.37,33.1-7.01,50.31-10.38"/>
	<path class="st2" d="M60.08,3c5.51,28.15,11.46,54.12,16.98,82.27"/>
</g>
</svg>
